<svg xmlns="http://www.w3.org/2000/svg" xmlns:xlink="http://www.w3.org/1999/xlink" viewBox="0 0 512 512">
  <defs>
    <linearGradient id="bg"><stop offset="0" stop-color="#1976d2"/><stop offset="1" stop-color="#0d47a1"/></linearGradient>
    <linearGradient id="gold"><stop offset="0" stop-color="#ffffff"/><stop offset="1" stop-color="#ffde00"/></linearGradient>
    <clipPath id="circleClip"><circle cx="256" cy="256" r="256"/></clipPath>
  </defs>
  <!-- Background -->
  <circle cx="256" cy="256" r="256" fill="url(#bg)"/>
  <!-- Cross (Nitro) scaled and centered -->
  <g transform="translate(256,256) scale(0.65) translate(-200,-200)" clip-path="url(#circleClip)">
    <path fill="url(#gold)" stroke="#937300" stroke-width="0.533"
      d="M 194.87357,41.593483 C 186.81546,51.86781 176.54136,58.11299 163.84983,60.228289 l -6.84939,1.108016 3.02179,4.029148 c 9.87119,13.195441 15.20968,33.844809 15.10896,58.926247 0,15.41148 -2.21598,29.71494 -5.94285,39.7878 -1.81308,4.93571 -1.91382,5.03644 -9.06538,7.25247 -16.31769,5.03642 -38.67895,6.54736 -57.21261,3.82769 -16.41841,-2.4175 -28.001937,-6.54736 -38.376753,-13.69909 l -4.129793,-2.82041 -1.208714,6.54736 c -2.518163,12.69181 -11.281366,26.18945 -21.253283,32.93827 l -2.518145,1.71239 2.518145,1.71239 c 12.28863,8.76339 22.159814,25.18215 22.159814,37.26958 v 3.42478 l 5.64069,-4.02914 c 18.634389,-13.3969 57.514769,-18.33261 87.329789,-11.2816 14.80679,3.52549 15.10897,3.72696 17.62714,12.28889 4.12977,14.30345 4.73411,19.23917 4.73411,37.16885 0,13.39692 -0.5036,19.74284 -1.91378,26.18946 -2.61889,12.08744 -6.95012,23.36904 -11.58354,30.11786 l -3.92832,5.84226 6.1443,1.10802 c 12.69154,2.41749 24.83527,10.62009 33.39701,22.00242 l 2.08259,2.90306 1.9612,-2.51488 c 8.66247,-12.28887 21.98778,-20.57749 36.19022,-22.69279 l 4.43195,-0.7051 -3.32398,-4.73426 c -4.43195,-6.34589 -6.95012,-11.38232 -9.46829,-19.74281 -6.84938,-21.85811 -6.74865,-55.19929 0.10081,-75.6472 2.21598,-6.74881 2.41744,-6.95027 7.35303,-8.76339 30.52011,-11.38233 82.02074,-6.01542 100.25223,10.50406 l 1.63464,1.29109 c 0.1008,-4.33134 3.9766,-15.82429 6.89766,-21.56582 3.52542,-6.44664 9.19095,-13.82695 15.13383,-17.65464 l 3.80274,-2.49341 -4.54513,-3.65335 c -9.87119,-7.25246 -18.01759,-19.10902 -20.13285,-31.39791 l -1.20872,-6.95026 -4.53269,3.22331 c -6.74867,4.83497 -11.98644,7.25246 -21.55545,9.97214 -22.46199,6.54736 -52.6799,6.3459 -74.43682,-0.40292 -6.1443,-1.91384 -6.74867,-2.31676 -8.25957,-6.04372 -2.41742,-6.04371 -5.43922,-22.56322 -6.24503,-33.74409 -1.61162,-24.77925 5.43923,-54.594915 15.71331,-66.279441 l 2.92109,-3.424781 -7.05086,-1.208732 C 222.47267,57.60934 210.18405,49.853245 202.02521,38.873818 l -2.41743,-3.424782 z"/>
  </g>
  <!-- Ring outline -->
  <circle cx="256" cy="256" r="210" fill="none" stroke="rgba(255,255,255,0.3)" stroke-width="4"/>
  <circle cx="256" cy="256" r="130" fill="none" stroke="rgba(255,255,255,0.2)" stroke-width="2"/>
</svg>
