<?xml version="1.0" encoding="UTF-8" standalone="no"?>
<!-- Created with Inkscape (http://www.inkscape.org/) -->

<svg
   width="400mm"
   height="400mm"
   viewBox="0 0 400 400"
   version="1.1"
   id="svg1"
   xml:space="preserve"
   xmlns:xlink="http://www.w3.org/1999/xlink"
   xmlns="http://www.w3.org/2000/svg"
   xmlns:svg="http://www.w3.org/2000/svg"><defs
     id="defs1"><linearGradient
       id="linearGradient3070"><stop
         style="stop-color:#ffffff;stop-opacity:1"
         offset="0"
         id="stop3066" /><stop
         style="stop-color:#ffde00;stop-opacity:1"
         offset="1"
         id="stop3068" /></linearGradient><radialGradient
       xlink:href="#linearGradient3070"
       id="radialGradient4549"
       gradientUnits="userSpaceOnUse"
       gradientTransform="matrix(0.10072642,0,0,-0.10070782,17.796542,382.11951)"
       cx="1797.6311"
       cy="1802.0002"
       fx="1797.6311"
       fy="1802.0002"
       r="1783.4554" /></defs><g
     id="layer1"><circle
       style="fill:none;stroke:#000000;stroke-width:0.5;stroke-dasharray:none;stroke-opacity:1"
       id="circle2"
       cx="179.15633"
       cy="218.86757"
       r="165"
       transform="rotate(-5.6976031)" /><g
       id="g4"
       transform="rotate(17.344362,275.73409,141.93988)"
       style="stroke:#000000;stroke-opacity:1"><path
         style="fill:#8b8bff;fill-opacity:1;stroke:none;stroke-width:1.88977;stroke-opacity:0.335396"
         d="m 799.64692,1566.2782 c -58.42814,-3.4117 -94.1644,-8.6361 -145.53985,-21.2771 C 466.35653,1498.8047 303.22428,1378.6073 202.39248,1212.1736 148.21274,1122.7442 113.33185,1021.2535 101.16583,917.64109 95.395614,868.49872 94.654185,812.20175 99.146203,764.28978 128.44338,451.80536 350.58998,193.34997 654.92933,117.6666 c 153.7641,-38.238196 316.7336,-25.388361 462.84457,36.49441 112.139,47.4945 211.0335,122.24971 287.1897,217.08895 54.3865,67.72896 97.3014,146.56837 124.4542,228.63627 43.8251,132.45886 49.3347,272.91518 15.9964,407.79127 -28.4403,115.0606 -82.5148,218.4711 -161.8838,309.5815 -13.0246,14.9514 -48.8411,51.013 -62.9824,63.4134 -76.5727,67.1459 -159.1331,115.2401 -252.4335,147.051 -63.7798,21.7459 -131.14687,34.6725 -199.39782,38.2613 -13.9305,0.7325 -58.3208,0.9211 -69.06976,0.2935 z m 38.23504,-11.3864 c 0,-1.2791 -0.46595,-2.0556 -1.23339,-2.0556 -1.0376,0 -1.23338,-1.8272 -1.23338,-11.5116 0,-9.6844 0.19578,-11.5117 1.23338,-11.5117 0.76744,0 1.23339,-0.7765 1.23339,-2.0556 0,-2.0214 -0.10963,-2.0557 -6.57807,-2.0557 -6.46844,0 -6.57807,0.035 -6.57807,2.0557 0,1.5074 0.43853,2.0556 1.64452,2.0556 1.56325,0 1.64451,0.5482 1.64451,11.0936 0,10.203 -0.13201,11.1759 -1.64451,12.1205 -0.90449,0.5649 -1.64452,1.678 -1.64452,2.4737 0,1.2603 0.84794,1.4468 6.57807,1.4468 6.46844,0 6.57807,-0.034 6.57807,-2.0557 z m -14.38953,-42.0184 c 16.95999,-3.5871 22.3046,-3.7034 38.21427,-0.8317 18.59968,3.3573 21.81792,3.1204 40.13614,-2.9545 17.20661,-5.7063 15.86477,-5.5649 45.8107,-4.825 14.25921,0.3524 14.18808,0.37 31.91064,-7.9025 6.24481,-2.9149 12.88497,-5.84 14.75594,-6.5001 1.96684,-0.6939 10.70928,-1.6984 20.72588,-2.3814 21.7867,-1.4856 21.4891,-1.3865 42.3791,-14.109 5.2008,-3.1673 11.0357,-6.3787 12.9664,-7.1364 1.9307,-0.7578 9.8861,-2.4979 17.6786,-3.8672 21.3462,-3.7508 21.1324,-3.6574 37.6111,-16.4297 6.5207,-5.0541 13.6123,-10.0794 15.759,-11.1671 2.1467,-1.0879 9.7451,-3.6778 16.8854,-5.7554 19.4563,-5.6613 20.9805,-6.5479 35.7938,-20.8208 13.8037,-13.3002 14.7649,-13.93 32.6911,-21.4207 16.4235,-6.8629 17.7967,-7.9273 30.2742,-23.4664 4.3576,-5.4269 9.4656,-11.3472 11.3509,-13.1562 1.8853,-1.8089 9.6628,-6.8041 17.2833,-11.1005 8.5059,-4.7955 15.2936,-9.24 17.5806,-11.5116 2.0489,-2.0351 7.4833,-9.6204 12.0764,-16.8563 4.5932,-7.2359 9.7635,-14.4962 11.4897,-16.1339 1.7261,-1.6378 7.9486,-6.4409 13.8278,-10.6735 15.5145,-11.1696 16.1401,-11.9184 25.7259,-30.7932 9.1213,-17.9601 9.2484,-18.1257 25.3025,-32.9734 11.6304,-10.7564 12.9102,-12.8369 19.5671,-31.8091 2.5132,-7.1624 5.542,-14.6822 6.7307,-16.7106 1.1887,-2.0284 5.7483,-7.8238 10.1326,-12.8785 9.6447,-11.12 12.6047,-14.9131 14.4472,-18.5134 0.7726,-1.5096 3.0408,-9.835 5.0405,-18.5008 4.1,-17.7675 5.822,-21.7837 14.8638,-34.668 11.4277,-16.2842 12.0256,-17.877 14.2625,-37.9945 0.8654,-7.7819 1.996,-15.7373 2.5126,-17.6786 0.9284,-3.4891 5.796,-13.6941 11.0963,-23.2638 6.2633,-11.30846 6.3849,-11.91315 6.9458,-34.5349 l 0.5096,-20.55647 3.5523,-9.04485 c 7.7623,-19.76472 9.0918,-24.27523 9.0997,-30.86887 0,-3.4106 -0.5867,-10.62592 -1.3129,-16.03405 -2.2436,-16.70942 -1.9624,-20.95913 2.4954,-37.73053 4.6381,-17.44959 4.8493,-21.93118 1.6689,-35.41637 -1.1733,-4.97467 -2.8667,-12.52102 -3.7632,-16.76968 l -1.63,-7.72483 2.1813,-15.29842 c 3.1223,-21.89898 2.8604,-24.59359 -4.244,-43.66636 l -5.6662,-15.2118 0.2203,-18.50082 c 0.1295,-10.8683 -0.1422,-20.24896 -0.6585,-22.73819 -0.4834,-2.33054 -4.0019,-10.58746 -7.8189,-18.34868 -3.817,-7.76124 -7.4844,-16.02989 -8.1499,-18.37477 -0.6654,-2.3449 -1.7728,-10.73873 -2.4608,-18.65297 -1.7623,-20.27164 -2.1214,-21.27575 -14.1084,-39.45735 -3.8889,-5.89839 -7.7858,-12.6067 -8.6601,-14.90736 -0.8741,-2.30066 -2.862,-10.36189 -4.4175,-17.91384 -4.2703,-20.73284 -4.3736,-20.94439 -18.5954,-38.05186 -4.3911,-5.28202 -8.9146,-11.20228 -10.0523,-13.15614 -1.1377,-1.95386 -4.3215,-10.3914 -7.0751,-18.75008 -2.7537,-8.35868 -5.9542,-16.68405 -7.1123,-18.50082 -1.1581,-1.81679 -7.8136,-8.89929 -14.7901,-15.73891 l -12.6844,-12.43568 -4.9845,-10.58758 c -12.5993,-26.7623 -11.8527,-25.7622 -28.8897,-38.70309 -6.2016,-4.71061 -12.6769,-10.16159 -14.3895,-12.1133 -1.7127,-1.95172 -6.2591,-8.83665 -10.1031,-15.29985 -9.72,-16.34251 -11.8948,-18.51441 -28.3831,-28.3439 -7.5841,-4.52124 -15.315,-9.70051 -17.1797,-11.50948 -1.8647,-1.80897 -6.7926,-7.75795 -10.9507,-13.21996 -12.4322,-16.33066 -11.8998,-15.94654 -40.7798,-29.422 -7.7606,-3.62111 -8.6208,-4.30337 -21.8808,-17.35432 -15.6471,-15.40029 -15.1688,-15.11048 -35.8269,-21.71119 -7.233,-2.31113 -15.0011,-5.29435 -17.2623,-6.62938 -2.2612,-1.33502 -9.1006,-6.53308 -15.1987,-11.55124 -6.0981,-5.01817 -13.022,-10.03912 -15.3864,-11.15767 -2.5204,-1.19232 -10.5182,-3.25816 -19.3312,-4.99325 -8.2676,-1.62774 -16.8546,-3.67787 -19.0821,-4.55584 -2.2274,-0.87798 -9.0749,-4.85997 -15.2167,-8.84887 -18.2833,-11.87442 -18.1205,-11.81841 -39.5349,-13.60712 -8.3665,-0.69883 -17.0619,-1.8112 -19.3231,-2.47192 -2.2612,-0.66072 -9.7853,-3.98624 -16.72011,-7.39004 -18.01027,-8.83987 -17.8732,-8.81113 -40.60891,-8.51372 l -19.14104,0.25038 -9.86711,-3.57185 c -22.46588,-8.13256 -21.50121,-7.88815 -30.83471,-7.81244 -4.74855,0.0385 -13.25893,0.86109 -18.91196,1.82795 -5.65303,0.96686 -12.27985,1.758 -14.72626,1.75809 -2.44641,9e-5 -10.9568,-1.52689 -18.91195,-3.39329 -19.6523,-4.61071 -22.70774,-4.57377 -41.18736,0.49786 -16.98716,4.66203 -20.83128,4.90051 -41.22313,2.55735 -16.49196,-1.89503 -18.0058,-1.67926 -34.66091,4.94021 -18.69203,7.42903 -17.01505,7.09608 -38.8211,7.70759 -22.86322,0.64116 -21.26662,0.21977 -40.63057,10.7235 -13.6081,7.38155 -17.06297,8.43164 -33.78387,10.26843 -20.22565,2.22179 -21.59232,2.75166 -39.65067,15.37296 -5.75327,4.02105 -12.1507,8.05866 -14.21652,8.97248 -2.06583,0.91381 -10.12418,3.13674 -17.90747,4.93986 -20.36804,4.71855 -21.08212,5.10227 -39.14255,21.03316 -10.07975,8.89121 -14.04034,11.13142 -28.73072,16.25081 -19.81726,6.90604 -20.77586,7.58971 -39.3701,28.07888 l -7.54232,8.31095 -16.68516,8.5119 c -11.5393,5.88676 -17.71192,9.53868 -20.01441,11.84117 -1.83109,1.83109 -6.89878,8.32143 -11.26153,14.42299 -9.87289,13.80777 -12.41079,16.36377 -22.86123,23.02437 -21.07235,13.43047 -22.21588,14.58566 -31.89137,32.21671 -8.24214,15.01915 -10.16678,17.42975 -20.85304,26.11831 -18.40109,14.96117 -19.71563,16.65951 -27.3957,35.39462 -6.41269,15.6434 -7.95219,17.96853 -20.83276,31.46395 -13.834,14.49437 -14.80624,16.18777 -19.93859,34.72791 -4.38236,15.83089 -5.9888,19.13145 -14.79494,30.39736 -8.88137,11.36213 -13.64178,18.62975 -14.77121,22.55094 -0.46977,1.63093 -1.76571,8.33055 -2.87986,14.88807 -3.60656,21.22698 -3.37741,20.61462 -14.84768,39.6779 -3.80135,6.31775 -7.4794,13.38785 -8.17343,15.71135 -0.74219,2.48471 -1.59143,10.4893 -2.06207,19.43632 -0.4401,8.36649 -1.21909,17.06188 -1.73107,19.32309 -0.51199,2.26121 -3.60927,10.03156 -6.88284,17.26744 -8.5586,18.91785 -8.27757,17.75112 -7.82298,32.47923 0.89703,29.06211 0.89452,29.08713 -4.54509,45.22425 -4.66219,13.83085 -4.84912,14.70877 -4.81474,22.61212 0.0239,5.48726 0.769,11.90685 2.2399,19.29774 2.87564,14.44934 2.78657,18.79016 -0.75032,36.56709 -3.7051,18.62243 -3.55977,21.46845 2.05022,40.14929 2.27738,7.58352 4.37888,15.58377 4.67,17.77833 0.29112,2.19455 -0.10413,10.97553 -0.87833,19.51326 -1.74468,19.24003 -1.48958,20.86433 6.04635,38.49956 3.10305,7.2617 6.09653,14.49807 6.65217,16.08092 0.55565,1.58285 1.32855,10.48356 1.71757,19.77936 0.98367,23.50539 0.67033,22.41919 12.32088,42.71229 3.50512,6.1053 6.95262,12.823 7.66112,14.9282 0.70849,2.1053 2.06986,9.5057 3.02528,16.4452 3.01608,21.9072 3.36584,22.7549 16.96219,41.1091 4.238,5.721 8.41713,12.0113 9.28696,13.9784 0.86982,1.9671 3.27798,9.8668 5.35145,17.5549 5.04915,18.7214 6.65732,21.7681 17.795,33.7126 14.32059,15.358 14.66962,15.8939 21.24358,32.6159 3.25959,8.2914 7.23269,17.0062 8.82913,19.3665 1.71926,2.5419 7.6931,8.3668 14.65319,14.288 6.46282,5.4982 13.0258,11.7075 14.58441,13.7984 1.5586,2.0909 5.94602,9.6702 9.74981,16.8428 3.80379,7.1727 8.13324,14.4633 9.62099,16.2013 1.48774,1.7382 8.33076,6.9527 15.2067,11.5877 6.87594,4.6352 14.06792,9.8712 15.98217,11.6357 1.91424,1.7645 7.21692,8.7074 11.78371,15.4287 4.56679,6.7213 10.24427,13.9946 12.6166,16.1627 2.73709,2.5015 8.85552,6.2914 16.74277,10.3707 16.02336,8.2874 18.4564,10.0816 27.00308,19.9126 11.21595,12.9014 16.884,18.4268 21.14601,20.614 2.1757,1.1165 9.76104,4.2447 16.85631,6.9514 7.09528,2.7067 14.75058,6.1716 17.01179,7.6997 2.26122,1.5282 8.73651,7.0817 14.38954,12.3412 12.72261,11.8371 16.75066,13.9535 35.35714,18.5775 7.462,1.8543 15.41735,4.2996 17.67857,5.4339 2.26121,1.1342 8.55149,5.3084 13.9784,9.2759 17.79515,13.0096 18.11316,13.1402 39.06489,16.0368 7.91842,1.0947 16.11966,2.5752 18.22498,3.29 2.10531,0.7147 9.0764,4.2547 15.49131,7.8665 6.41491,3.6117 13.38435,7.329 15.48765,8.2604 5.04855,2.2359 12.88698,3.1885 26.49085,3.2194 6.13528,0.014 13.24953,0.4126 15.80945,0.8859 2.55992,0.4732 11.41577,3.688 19.67967,7.1439 14.28056,5.972 15.39206,6.2997 22.4256,6.6115 4.07018,0.1805 13.13559,-0.2216 20.14534,-0.8933 14.7008,-1.4089 17.566,-1.1203 31.84156,3.2073 20.71113,6.2785 22.51528,6.3783 41.75063,2.31 z"
         id="path11"
         transform="matrix(0.2525528,-0.078876,0.078876,0.2525528,-54.829605,75.525845)" /><text
         xml:space="preserve"
         style="font-size:11.6417px;line-height:0;font-family:lora;-inkscape-font-specification:lora;letter-spacing:0px;word-spacing:0px;writing-mode:lr-tb;direction:rtl;fill:#545454;fill-opacity:1;stroke:none;stroke-width:0.499999;stroke-opacity:1"
         x="222.25267"
         y="411.92221"
         id="text6"
         transform="rotate(-17.344362,220.17093,217.50307)"><tspan
           id="tspan6"
           style="font-weight:bold;font-size:11.6417px;letter-spacing:0px;word-spacing:0px;stroke-width:0.5"
           x="222.25267"
           y="411.92221">I</tspan></text><circle
         style="fill:none;stroke:#000000;stroke-width:0.5;stroke-dasharray:none;stroke-opacity:1"
         id="circle5"
         transform="rotate(146.9977)"
         r="194.95728"
         cy="-304.6879"
         cx="-65.339592" /><text
         xml:space="preserve"
         style="font-size:8.46667px;line-height:0;letter-spacing:6.35px;word-spacing:6.35px;writing-mode:lr-tb;direction:ltr;display:inline;fill:#000000;fill-opacity:1;stroke:none;stroke-width:0.499999;stroke-dasharray:none;stroke-opacity:1"
         id="text5"><textPath
           xlink:href="#circle5"
           id="textPath1"
           style="font-style:normal;font-variant:normal;font-weight:normal;font-stretch:normal;font-size:8.46667px;line-height:0;font-family:lora;-inkscape-font-specification:lora;letter-spacing:6.35px;word-spacing:6.35px;fill:#000000;fill-opacity:1;stroke:none;stroke-width:0.5;stroke-opacity:1"
           dy="9.3000002"
           dx="0">Udržuj krb svých myšlenek čistý, zjednáváš tím mír a jsi šťastný!</textPath></text></g><g
       id="g3"
       transform="rotate(-8.2629107,381.30166,-1065.9561)"
       style="stroke:#000000;stroke-opacity:1"><path
         style="fill:#ff8989;fill-opacity:1;stroke:none;stroke-width:1.88977;stroke-opacity:1"
         d="m 796.35788,1511.7827 c -3.1657,-0.8052 -10.19601,-2.7704 -15.62292,-4.3673 -14.2235,-4.1851 -15.21627,-4.2615 -33.82042,-2.6021 -20.29978,1.8106 -20.70872,1.747 -39.12425,-6.09 -15.945,-6.7856 -19.14569,-7.55 -31.72827,-7.5777 -13.44476,-0.03 -24.66338,-1.2567 -29.1761,-3.1911 -2.10242,-0.9012 -7.62804,-3.83 -12.27913,-6.5085 -17.61264,-10.1428 -18.92062,-10.5985 -38.05786,-13.2573 -20.66194,-2.8706 -19.77586,-2.5037 -37.82391,-15.6642 -5.42691,-3.9574 -11.71719,-8.1193 -13.97841,-9.2487 -2.26121,-1.1295 -10.75312,-3.7694 -18.87091,-5.8667 -8.1178,-2.0972 -16.25816,-4.5412 -18.0897,-5.431 -3.70479,-1.8 -8.50519,-5.7179 -21.17417,-17.2814 -9.29912,-8.4877 -12.1733,-10.1486 -27.79129,-16.0595 -18.54218,-7.0176 -20.2958,-8.3246 -36.71388,-27.363 -7.7982,-9.0428 -10.61336,-11.1022 -26.60006,-19.4585 -8.65562,-4.5243 -14.84703,-8.3422 -17.10231,-10.5459 -1.94426,-1.8999 -6.93949,-8.4152 -11.10049,-14.4784 -10.2487,-14.9339 -13.00586,-17.8022 -24.2212,-25.1971 -19.77053,-13.0358 -19.88614,-13.1613 -30.44124,-33.0274 -3.65647,-6.8819 -7.69106,-13.8282 -8.96577,-15.4361 -1.27471,-1.6081 -7.54828,-7.3841 -13.94127,-12.8357 -15.53079,-13.2439 -15.624,-13.3832 -24.96748,-37.3301 -4.61261,-11.8219 -6.87387,-15.1764 -18.84599,-27.9568 -12.03584,-12.8486 -13.46634,-15.5092 -18.56699,-34.5349 -2.06113,-7.6881 -4.65763,-15.8285 -5.77,-18.0897 -1.11236,-2.2612 -5.73084,-9.1065 -10.26329,-15.2118 -10.83607,-14.5963 -11.95038,-16.984 -14.00694,-30.0125 -4.34516,-27.5269 -3.96073,-26.3305 -14.00296,-43.5797 -9.27361,-15.929 -9.11904,-15.3641 -10.24287,-37.43448 l -0.99037,-19.4498 -3.8976,-9.38176 c -2.14368,-5.15998 -5.39146,-13.08194 -7.21727,-17.60437 l -3.31968,-8.22259 0.71012,-13.15614 c 0.39057,-7.23588 0.6946,-17.41134 0.67563,-22.61213 -0.0331,-9.07911 -0.20891,-10.01308 -4.41098,-23.43438 -5.45314,-17.41722 -5.59486,-20.75563 -1.67546,-39.46843 3.37402,-16.10893 3.42792,-21.54621 0.37085,-37.41279 -3.48469,-18.08604 -3.26589,-21.37092 2.57412,-38.64617 l 4.86448,-14.38954 -0.23417,-22.20099 c -0.26864,-25.46877 -0.64471,-23.49844 8.08244,-42.34634 2.82692,-6.10528 5.64423,-12.95058 6.26068,-15.21179 0.61645,-2.26122 1.48492,-10.86273 1.92992,-19.11447 1.15507,-21.41828 1.08668,-21.18996 11.52327,-38.47092 9.88021,-16.35971 10.55199,-18.22678 13.59929,-37.79666 2.58135,-16.57759 3.66017,-19.06681 14.10354,-32.54192 13.40042,-17.29058 12.76679,-16.05065 18.77836,-36.74699 2.00541,-6.90417 4.58613,-14.40786 5.73491,-16.67487 1.27179,-2.50975 6.68162,-8.90784 13.832,-16.35878 12.63258,-13.16359 14.52513,-16.00102 20.21158,-30.30239 7.48208,-18.81736 9.39039,-21.32582 27.16643,-35.71028 11.01085,-8.91004 13.19456,-11.61709 21.24747,-26.33957 9.69001,-17.71545 10.49065,-18.51665 32.79104,-32.8147 9.24712,-5.92886 12.4089,-9.16717 21.80719,-22.33502 11.29376,-15.82356 12.62686,-16.95005 30.73694,-25.97343 17.1104,-8.52527 15.66287,-7.37045 35.28622,-28.15104 9.23544,-9.78007 10.30135,-10.4092 28.36794,-16.7434 15.12986,-5.30459 18.65743,-7.32841 29.60112,-16.98269 17.73406,-15.64459 17.25198,-15.39201 39.05101,-20.46078 7.68455,-1.78684 15.82491,-4.16155 18.08969,-5.27714 2.26479,-1.1156 8.92802,-5.40755 14.80717,-9.53769 16.72636,-11.75035 17.38039,-11.98885 39.46843,-14.39268 15.17434,-1.65142 19.03905,-2.90718 34.11581,-11.08524 17.36198,-9.41762 16.18611,-9.122 39.06525,-9.82135 10.92031,-0.3338 21.09286,-1.03189 22.77621,-1.56302 1.67309,-0.52789 7.40835,-2.74569 12.74502,-4.92843 19.04301,-7.78876 20.9614,-8.037 41.67084,-5.3922 14.46942,1.84789 20.47686,1.34645 35.86855,-2.99394 17.0156,-4.79833 22.96828,-4.87351 41.1689,-0.51994 15.17308,3.62939 20.79176,3.8366 35.93148,1.32511 5.75861,-0.95529 13.43034,-1.78633 17.04828,-1.84676 6.00833,-0.10036 7.64632,0.27102 18.91196,4.28784 21.92599,7.81785 20.44538,7.56431 42.75747,7.32177 l 19.73421,-0.21451 6.57807,2.98388 c 3.61794,1.64113 11.08439,5.21091 16.59204,7.93283 11.1545,5.51261 14.1107,6.20011 32.6818,7.60048 18.0698,1.36257 18.7655,1.60654 35.83,12.56495 14.7588,9.47777 17.8586,10.71494 35.3571,14.11136 9.1671,1.77933 16.8479,3.74591 19.329,4.94905 2.2644,1.09806 9.1097,6.10487 15.2118,11.12626 6.102,5.02139 12.9447,10.21635 15.2059,11.54436 2.2612,1.32801 10.5866,4.49184 18.5008,7.03075 7.9143,2.53889 15.8696,5.36309 17.6786,6.27599 1.809,0.91289 9.2093,7.47728 16.4452,14.58751 13.9077,13.66627 15.9598,15.15566 28.3679,20.5886 13.1622,5.76315 19.1842,9.02404 22.4891,12.17777 1.7414,1.66166 7.4296,8.48084 12.6406,15.15372 10.4176,13.34016 11.8721,14.58555 28.1824,24.13016 14.4353,8.44746 18.1565,12.2165 27.5224,27.87617 4.0563,6.78219 8.8087,13.89034 10.5608,15.79591 1.7522,1.90556 8.1117,7.19178 14.1321,11.74713 13.9463,10.5525 16.9787,13.89036 21.548,23.71855 12.2093,26.26132 10.5834,23.8053 25.3798,38.33756 15.2247,14.95291 14.7621,14.19834 21.6907,35.38159 2.3667,7.23588 5.2345,14.77113 6.3728,16.74502 1.1384,1.97388 5.6682,7.89414 10.0664,13.15614 14.2274,17.02195 14.663,17.92163 18.5594,38.33363 1.1595,6.07475 2.8012,13.05899 3.6481,15.52055 0.8469,2.46155 5.4156,10.52907 10.1527,17.9278 11.9051,18.59406 11.3511,16.97592 13.3278,38.92315 0.6925,7.68813 1.8349,15.98191 2.5387,18.43063 0.7038,2.44873 3.8579,9.59897 7.0091,15.88943 9.7754,19.5137 9.1781,16.88313 9.2905,40.91665 l 0.098,20.9676 5.6187,15.21179 c 3.3231,8.99655 5.7899,17.05957 6.0376,19.73422 0.2553,2.75829 -0.4525,10.6167 -1.8145,20.14535 -2.584,18.07663 -2.5005,19.91657 1.6609,36.62568 4.5849,18.40886 4.5851,21.32768 0,39.02215 -4.8426,18.70239 -5.1192,22.27968 -2.9769,38.49755 2.7189,20.58317 2.7234,20.55171 -5.9274,42.49496 l -5.0245,12.74502 -0.5252,20.55648 c -0.6041,23.64274 -0.097,21.60493 -10.1617,40.83251 -3.3949,6.4857 -6.7359,13.389 -7.4244,15.3408 -0.6886,1.9518 -2.0106,10.2772 -2.9379,18.5008 -2.4592,21.8115 -2.4238,21.7155 -14.5269,39.3698 -4.2463,6.1939 -8.4489,12.9082 -9.3391,14.9208 -0.8903,2.0126 -3.2679,10.7419 -5.2837,19.3985 -2.2424,9.6302 -4.4912,17.2432 -5.7937,19.614 -1.1709,2.1312 -6.5894,9.0552 -12.0413,15.3866 -5.4519,6.3313 -10.8087,13.0396 -11.9041,14.9071 -1.0955,1.8674 -3.9953,9.1315 -6.4442,16.1423 -7.3149,20.9418 -6.4688,19.7435 -28.9822,41.0497 l -7.5453,7.1406 -8.056,16.2166 c -5.5098,11.0911 -9.0979,17.2884 -11.3525,19.6081 -1.8131,1.8654 -7.9217,6.7083 -13.5748,10.7622 -13.3861,9.5991 -18.1809,14.4811 -25.0138,25.469 -12.1941,19.609 -13.2027,20.6017 -30.8998,30.4155 -15.0986,8.3729 -16.4847,9.5281 -27.1149,22.596 -14.4085,17.713 -14.9221,18.1141 -32.2856,25.2143 -16.2888,6.6608 -17.7754,7.641 -31.4224,20.7173 -6.9825,6.6906 -14.4725,13.1312 -16.6443,14.3123 -2.1719,1.1813 -10.3673,4.0376 -18.212,6.3474 -7.8447,2.3099 -16.0213,5.0907 -18.1704,6.1797 -2.149,1.089 -8.4962,5.5837 -14.1048,9.9882 -17.4031,13.6669 -17.6781,13.7897 -39.3878,17.589 -16.1685,2.8297 -19.8322,4.224 -33.2771,12.664 -16.971,10.6536 -19.2246,11.3348 -41.1373,12.436 -14.27944,0.7175 -17.32492,1.3743 -27.06014,5.8354 -4.56337,2.0911 -11.62715,5.3271 -15.69733,7.1912 l -7.40034,3.3891 h -23.02325 -23.02325 l -13.97841,4.8046 c -18.11186,6.2254 -20.7959,6.4312 -40.14083,3.079 -8.05795,-1.3964 -16.14034,-2.5389 -17.96086,-2.5389 -1.82053,0 -10.64133,1.4801 -19.60178,3.289 -18.25185,3.6848 -19.46345,3.7597 -27.54568,1.704 z m 62.49169,-55.9916 c 115.51465,-5.6076 222.27013,-40.2942 317.39203,-103.1257 35.3458,-23.3473 63.229,-45.9594 93.6781,-75.9692 100.7157,-99.2623 163.6342,-226.5681 181.7233,-367.68883 3.3863,-26.41765 4.1315,-40.22642 4.1492,-76.88122 0.017,-36.71483 -0.4166,-45.33734 -3.7279,-74.00331 -20.9538,-181.40432 -122.3262,-346.29018 -275.0005,-447.29805 -79.5656,-52.63988 -167.4895,-85.76992 -261.88949,-98.68093 -44.69427,-6.1128 -100.71219,-7.02036 -146.77324,-2.37792 -207.54452,20.91818 -391.28458,144.52803 -489.12608,329.05617 -36.48298,68.80653 -60.18796,145.57701 -68.73067,222.58976 -2.92972,26.41148 -3.63473,39.78495 -3.66286,69.48089 -0.0282,29.737 0.76865,45.08809 3.67051,70.71428 22.84768,201.76686 141.04545,378.50586 319.13098,477.19046 99.14801,54.9421 216.75416,82.4508 329.16662,76.9936 z M 831.55223,196.87599 c 5.17489,-1.43702 6.323,-4.28724 6.32666,-15.70619 0.003,-10.26143 0.34373,-12.19557 2.14669,-12.19557 0.67361,0 1.14542,-0.84674 1.14542,-2.05564 0,-2.02139 -0.10963,-2.05565 -6.57807,-2.05565 -6.46844,0 -6.57808,0.0343 -6.57808,2.05565 0,1.50747 0.43854,2.05564 1.64452,2.05564 1.55635,0 1.64452,0.54818 1.64452,10.22471 0,6.07709 -0.3979,11.16368 -0.98089,12.53945 l -0.9809,2.31474 -0.30714,-2.26152 c -0.55115,-4.05821 -5.34288,-4.87752 -6.72201,-1.14937 -0.98776,2.67017 -0.0392,4.72652 2.73784,5.93539 3.13353,1.36403 2.73045,1.34554 6.50144,0.29836 z"
         id="path10"
         transform="matrix(0.2618367,0.03802476,-0.03802476,0.2618367,-166.13832,-88.602075)" /><text
         xml:space="preserve"
         style="font-size:11.6417px;line-height:0;font-family:lora;-inkscape-font-specification:lora;letter-spacing:0px;word-spacing:0px;writing-mode:lr-tb;direction:rtl;fill:#545454;fill-opacity:1;stroke:none;stroke-width:0.499999;stroke-opacity:1"
         x="222.77655"
         y="51.944733"
         id="text7"
         transform="rotate(8.2629107,530.24065,-1194.322)"><tspan
           id="tspan7"
           style="font-weight:bold;font-size:11.6417px;letter-spacing:0px;word-spacing:0px;stroke-width:0.5"
           x="222.77655"
           y="51.944733">J</tspan></text><text
         xml:space="preserve"
         style="font-size:8.46667px;line-height:0;font-family:lora;-inkscape-font-specification:lora;letter-spacing:6.35px;word-spacing:6.35px;writing-mode:lr-tb;direction:ltr;display:inline;fill:#000000;fill-opacity:1;stroke:none;stroke-width:0.499999;stroke-opacity:1"
         id="text1"><textPath
           xlink:href="#circle3"
           id="textPath3"
           style="font-size:8.46667px;letter-spacing:6.35px;word-spacing:6.35px;fill:#000000;fill-opacity:1;stroke:none;stroke-opacity:1"><tspan
             id="tspan1"
             style="font-size:8.46667px;letter-spacing:6.35px;word-spacing:6.35px;writing-mode:lr-tb;direction:ltr;fill:#000000;fill-opacity:1;stroke:none;stroke-width:0.5;stroke-opacity:1"
             dy="-4.6799994"><tspan
   style="letter-spacing:6.35px;word-spacing:6.35px;fill:#000000;fill-opacity:1;stroke:none;stroke-opacity:1"
   id="tspan5"
   dy="-5.48">Miluj</tspan> svého bližního, jako sám sebe!</tspan></textPath></text><circle
         style="display:none;fill:none;stroke:#000000;stroke-width:0.5;stroke-dasharray:none;stroke-opacity:1"
         id="circle3"
         transform="matrix(-0.94398525,0.32998762,0.32998762,0.94398525,-376.56271,-10.861461)"
         r="180"
         cy="292.82898"
         cx="-317.68842" /></g><path
       style="fill:none;fill-opacity:1;stroke:#000000;stroke-width:0.591829;stroke-opacity:1"
       id="path9"
       d="m 226.21351,117.56869 c -1.23293,2.83037 -1.8449,9.16172 -3.2374,11.91709 -1.3925,2.75536 -6.12703,7.00326 -7.67455,9.67464 -1.54753,2.67138 -2.87723,8.8917 -4.57474,11.47037 -1.69751,2.57867 -6.88541,6.25919 -8.72736,8.73675 -1.84195,2.47756 -3.87205,8.50576 -5.85244,10.87412 -1.9804,2.36837 -7.55402,5.43352 -9.66639,7.68496 -2.11237,2.25144 -4.81639,8.00893 -7.05385,10.13611 -2.23746,2.12718 -8.12415,4.53701 -10.4794,6.53298 -2.35524,1.99598 -5.69795,7.4077 -8.1633,9.26597 -2.46535,1.85826 -8.58837,3.58135 -11.15579,5.29583 -2.56742,1.71449 -6.50523,6.7099 -9.16633,8.27502 -2.66111,1.56512 -8.94064,2.57901 -11.68676,3.98965 -2.74612,1.41065 -7.22769,5.92463 -10.04986,7.1762 -2.82218,1.25158 -9.17635,1.54304 -12.06537,2.63146 -2.88902,1.08842 -7.855935,5.06211 -10.802381,5.98382 -2.946445,0.92172 -9.292422,0.48696 -12.286682,1.23896 -2.99426,0.752 -8.381767,4.1336 -11.414074,4.71344 -3.032307,0.57983 -9.287361,-0.57548 -12.347825,-0.1697 -3.060464,0.40578 -8.798327,3.15121 -11.876966,3.38161 -3.078638,0.2304 -9.161223,-1.6304 -12.247994,-1.57613 -3.086771,0.0543 -9.100188,2.12773 -12.185023,2.00569 -3.084835,-0.12204 -8.915657,-2.66408 -11.988493,-2.96203 -3.0728368,-0.29795 -9.2834144,1.07653 -12.33423006,0.60364 -3.05081534,-0.47289 -8.55385984,-3.66302 -11.57270294,-4.30931 -3.018843,-0.64628 -9.345617,0.0113 -12.322641,-0.80629 -2.977024,-0.81758 -8.080551,-4.61421 -11.006046,-5.60041 -2.925494,-0.98619 -9.285985,-1.05412 -12.150408,-2.20572 -2.864422,-1.1516 -7.501899,-5.50524 -10.295906,-6.81849 -2.794009,-1.31325 -9.105297,-2.10577 -11.819776,-3.57638 -2.71448,-1.47061 -6.825449,-6.32452 -9.451546,-7.9477 -2.626097,-1.62318 -8.805906,-3.12997 -11.335054,-4.90042 -2.529149,-1.77045 -6.060019,-7.06133 -8.483969,-8.97328 -2.423953,-1.91196 -8.391713,-4.11337 -10.702563,-6.16058 -2.31085,-2.04722 -5.21559,-7.7061 -7.40579,-9.8819 -2.19021,-2.1758 -7.86813,-5.04313 -9.93055,-7.34042 -2.06242,-2.29729 -4.30316,-8.2504 -6.23107,-10.66168 -1.9279,-2.41128 -7.24197,-5.90716 -9.02907,-8.42457 -1.7871,-2.51741 -3.33464,-8.68714 -4.97511,-11.30247 -1.64048,-2.61533 -6.5214,-6.69418 -8.00989,-9.3989 -1.48849,-2.70472 -2.32264,-9.01064 -3.6543,-11.79592 -1.33166,-2.78528 -5.71581,-7.39393 -6.88629,-10.25069 -1.17047,-2.85676 -1.28036,-9.21666 -2.28584,-12.13559 -1.00548,-2.91892 -4.83571,-7.997283 -5.67291,-10.968848 -0.8372,-2.971564 -0.2214,-9.302538 -0.88759,-12.317051 -0.66619,-3.014513 -3.89257,-8.496388 -4.38558,-11.544017 -0.49301,-3.047628 0.84045,-9.26714 0.52223,-12.337943 -0.31822,-3.070804 -2.89868,-8.884725 -3.04107,-11.968688 -0.14239,-3.083962 1.89135,-9.11093 1.92525,-12.197991 0.0339,-3.087062 -1.867,-9.157237 -1.65692,-12.237329 0.21008,-3.080092 2.91758,-8.835945 3.30316,-11.8990201 0.38558,-3.0630754 -0.81099,-9.3103697 -0.25117,-12.3464374 0.55982,-3.0360674 3.90579,-8.4457705 4.63802,-11.4449265 0.73223,-2.999157 0.2556,-9.342128 1.15785,-12.294592 0.90225,-2.952463 4.84308,-7.945491 5.91241,-10.841631 1.06934,-2.89614 1.31886,-9.252097 2.55179,-12.082467 1.23292,-2.830369 5.71723,-7.341631 7.10972,-10.096998 1.3925,-2.755368 2.36492,-9.041451 3.91245,-11.712829 1.54753,-2.671377 6.51685,-6.642062 8.21435,-9.220736 1.69751,-2.578674 3.38016,-8.712935 5.22211,-11.190495 1.84196,-2.47756 7.23151,-5.855901 9.2119,-8.224271 1.98039,-2.36836 4.35132,-8.27083 6.46369,-10.52227 2.11237,-2.25145 7.85189,-4.99341 10.08934,-7.12059 2.23746,-2.12718 5.26576,-7.72091 7.62101,-9.71688 2.35524,-1.99598 8.369912,-4.06581 10.835263,-5.92407 2.465352,-1.85827 6.111556,-7.07033 8.678973,-8.78482 2.567417,-1.71449 8.778823,-3.08521 11.439931,-4.65033 2.661108,-1.56512 6.877676,-6.32758 9.623794,-7.73823 2.746119,-1.41065 9.073288,-2.06438 11.89546,-3.31596 2.822172,-1.25158 7.554135,-5.50234 10.443156,-6.59076 2.88902,-1.08842 9.249468,-1.01665 12.195913,-1.93837 2.946446,-0.92171 8.132114,-4.60536 11.126374,-5.35737 2.99426,-0.752 9.305067,0.0443 12.3373747,-0.5355 3.0323075,-0.57984 8.60407934,-3.64836 11.6645438,-4.05414 3.060464,-0.40578 9.2393605,1.10475 12.3179985,0.87434 3.078639,-0.2304 8.963877,-2.64378 12.050648,-2.69805 3.086771,-0.0543 9.053205,2.15075 12.13804,2.27279 3.084835,0.12204 9.206816,-1.60475 12.279653,-1.3068 3.072837,0.29795 8.749027,3.16872 11.799842,3.64161 3.050816,0.47289 9.329732,-0.54479 12.348575,0.1015 3.018843,0.64628 8.330792,4.14537 11.307816,4.96295 2.977025,0.81757 9.331019,0.52227 12.256515,1.50846 2.92549,0.9862 7.80395,5.068 10.66837,6.2196 2.86443,1.1516 9.21067,1.58252 12.00467,2.89577 2.79401,1.31325 7.17538,5.92454 9.88986,7.39515 2.71448,1.47062 8.97023,2.62215 11.59633,4.24533 2.62609,1.62318 6.45326,6.70386 8.9824,8.47431 2.52915,1.77045 8.61286,3.62758 11.03681,5.53954 2.42395,1.91195 5.64702,7.39577 7.95786,9.44299 2.31085,2.04721 8.14321,4.58573 10.33341,6.76152 2.1902,2.1758 4.76715,7.99128 6.82957,10.28857 2.06242,2.29729 7.56739,5.48409 9.49529,7.89538 1.92791,2.411277 3.82514,8.482599 5.61225,11.000009 1.7871,2.517411 6.89292,6.310964 8.53339,8.926293 1.64048,2.615329 2.83327,8.863345 4.32176,11.568061 1.48849,2.704716 6.1286,7.055562 7.46025,9.840843 1.33166,2.785281 1.80445,9.128538 2.97493,11.985299 1.17047,2.856762 5.28437,7.70818 6.28985,10.627103 1.00548,2.918924 0.75211,9.274728 1.58931,12.246292 0.8372,2.971565 4.37127,8.260309 5.03746,11.274823 0.66619,3.014512 -0.31003,9.3000059 0.18298,12.34763437 0.49301,3.04762883 3.40117,8.70475323 3.71939,11.77555663 0.31822,3.070804 -1.36813,9.204046 -1.22574,12.288008 0.14239,3.083963 2.38673,9.035718 2.35283,12.122779 -0.0339,3.087062 -2.40839,8.988097 -2.61847,12.068188 -0.21008,3.080092 1.34118,9.248887 0.9556,12.311963 -0.38557,3.063075 -3.41726,8.654973 -3.97707,11.69104 -0.55982,3.036068 0.27814,9.341484 -0.45409,12.340641 -0.73222,2.999156 -4.38158,8.209019 -5.28383,11.161482 -0.90225,2.952464 -0.78851,9.312295 -1.85785,12.208435 -1.06933,2.89614 -5.28878,7.65605 -6.5217,10.48642 z"
       transform="matrix(0.84483657,0,0,0.84483656,172.91166,172.21713)" /></g><g
     id="layer2"><path
       style="opacity:1;fill:url(#radialGradient4549);fill-opacity:1;fill-rule:nonzero;stroke:#937300;stroke-width:0.533231;stroke-miterlimit:4;stroke-dasharray:none;stroke-opacity:1"
       id="path12"
       d="M 194.87357,41.593483 C 186.81546,51.86781 176.54136,58.11299 163.84983,60.228289 l -6.84939,1.108016 3.02179,4.029148 c 9.87119,13.195441 15.20968,33.844809 15.10896,58.926247 0,15.41148 -2.21598,29.71494 -5.94285,39.7878 -1.81308,4.93571 -1.91382,5.03644 -9.06538,7.25247 -16.31769,5.03642 -38.67895,6.54736 -57.21261,3.82769 -16.41841,-2.4175 -28.001937,-6.54736 -38.376753,-13.69909 l -4.129793,-2.82041 -1.208714,6.54736 c -2.518163,12.69181 -11.281366,26.18945 -21.253283,32.93827 l -2.518145,1.71239 2.518145,1.71239 c 12.28863,8.76339 22.159814,25.18215 22.159814,37.26958 v 3.42478 l 5.64069,-4.02914 c 18.634389,-13.3969 57.514769,-18.33261 87.329789,-11.2816 14.80679,3.52549 15.10897,3.72696 17.62714,12.28889 4.12977,14.30345 4.73411,19.23917 4.73411,37.16885 0,13.39692 -0.5036,19.74284 -1.91378,26.18946 -2.61889,12.08744 -6.95012,23.36904 -11.58354,30.11786 l -3.92832,5.84226 6.1443,1.10802 c 12.69154,2.41749 24.83527,10.62009 33.39701,22.00242 l 2.08259,2.90306 1.9612,-2.51488 c 8.66247,-12.28887 21.98778,-20.57749 36.19022,-22.69279 l 4.43195,-0.7051 -3.32398,-4.73426 c -4.43195,-6.34589 -6.95012,-11.38232 -9.46829,-19.74281 -6.84938,-21.85811 -6.74865,-55.19929 0.10081,-75.6472 2.21598,-6.74881 2.41744,-6.95027 7.35303,-8.76339 30.52011,-11.38233 82.02074,-6.01542 100.25223,10.50406 l 1.63464,1.29109 c 0.1008,-4.33134 3.9766,-15.82429 6.89766,-21.56582 3.52542,-6.44664 9.19095,-13.82695 15.13383,-17.65464 l 3.80274,-2.49341 -4.54513,-3.65335 c -9.87119,-7.25246 -18.01759,-19.10902 -20.13285,-31.39791 l -1.20872,-6.95026 -4.53269,3.22331 c -6.74867,4.83497 -11.98644,7.25246 -21.55545,9.97214 -22.46199,6.54736 -52.6799,6.3459 -74.43682,-0.40292 -6.1443,-1.91384 -6.74867,-2.31676 -8.25957,-6.04372 -2.41742,-6.04371 -5.43922,-22.56322 -6.24503,-33.74409 -1.61162,-24.77925 5.43923,-54.594915 15.71331,-66.279441 l 2.92109,-3.424781 -7.05086,-1.208732 C 222.47267,57.60934 210.18405,49.853245 202.02521,38.873818 l -2.41743,-3.424782 z" /></g></svg>
